HIERARCHY
ROOT Hips
{
    OFFSET 0.000000 0.000000 0.000000
    CHANNELS 6 Xposition Yposition Zposition Zrotation Xrotation Yrotation
    JOINT Spine
    {
        OFFSET -0.000000 6.925600 0.000000
        CHANNELS 3 Zrotation Xrotation Yrotation
        JOINT Spine1
        {
            OFFSET -0.000000 16.343796 0.000000
            CHANNELS 3 Zrotation Xrotation Yrotation
            JOINT Neck
            {
                OFFSET -0.000000 18.032967 0.000000
                CHANNELS 3 Zrotation Xrotation Yrotation
                JOINT Head
                {
                    OFFSET -0.000000 13.091072 1.689171
                    CHANNELS 3 Zrotation Xrotation Yrotation
                    End Site
                    {
                        OFFSET -0.000000 16.891708 0.000000
                    }
                }
            }
            JOINT LeftShoulder
            {
                OFFSET 3.336773 14.146137 -0.012206
                CHANNELS 3 Zrotation Xrotation Yrotation
                JOINT LeftArm
                {
                    OFFSET 11.765518 0.000000 0.000000
                    CHANNELS 3 Zrotation Xrotation Yrotation
                    JOINT LeftForeArm
                    {
                        OFFSET 25.163450 0.000000 0.000000
                        CHANNELS 3 Zrotation Xrotation Yrotation
                        JOINT LeftHand
                        {
                            OFFSET 21.783554 0.000000 0.000000
                            CHANNELS 3 Zrotation Xrotation Yrotation
                            End Site
                            {
                                OFFSET 12.668781 0.000000 0.000000
                            }
                        }
                    }
                }
            }
            JOINT RightShoulder
            {
                OFFSET -3.409204 14.146137 -0.012206
                CHANNELS 3 Zrotation Xrotation Yrotation
                JOINT RightArm
                {
                    OFFSET -11.765518 0.000000 0.000000
                    CHANNELS 3 Zrotation Xrotation Yrotation
                    JOINT RightForeArm
                    {
                        OFFSET -25.163450 0.000000 0.000000
                        CHANNELS 3 Zrotation Xrotation Yrotation
                        JOINT RightHand
                        {
                            OFFSET -21.783554 0.000000 0.000000
                            CHANNELS 3 Zrotation Xrotation Yrotation
                            End Site
                            {
                                OFFSET -12.668781 0.000000 0.000000
                            }
                        }
                    }
                }
            }
        }
    }
    JOINT LeftUpLeg
    {
        OFFSET 8.445854 0.000000 0.000000
        CHANNELS 3 Zrotation Xrotation Yrotation
        JOINT LeftLeg
        {
            OFFSET -0.000000 -40.674755 0.000000
            CHANNELS 3 Zrotation Xrotation Yrotation
            JOINT LeftFoot
            {
                OFFSET -0.000000 -37.111794 0.000000
                CHANNELS 3 Zrotation Xrotation Yrotation
                JOINT LeftToeBase
                {
                    OFFSET -0.000000 -5.489805 12.668781
                    CHANNELS 3 Zrotation Xrotation Yrotation
                    End Site
                    {
                        OFFSET -0.000000 0.000000 3.378341
                    }
                }
            }
        }
    }
    JOINT RightUpLeg
    {
        OFFSET -8.445854 0.000000 0.000000
        CHANNELS 3 Zrotation Xrotation Yrotation
        JOINT RightLeg
        {
            OFFSET -0.000000 -40.674755 0.000000
            CHANNELS 3 Zrotation Xrotation Yrotation
            JOINT RightFoot
            {
                OFFSET -0.000000 -37.111794 0.000000
                CHANNELS 3 Zrotation Xrotation Yrotation
                JOINT RightToeBase
                {
                    OFFSET -0.000000 -5.489805 12.668781
                    CHANNELS 3 Zrotation Xrotation Yrotation
                    End Site
                    {
                        OFFSET -0.000000 0.000000 3.378341
                    }
                }
            }
        }
    }
}
MOTION
Frames:    8
Frame Time:    0.008333
-3.143882    81.817337    15.964505    2.815960    3.248137    88.174431    -5.531572    -0.497401    -4.382725    -0.044455    12.393555    -1.443377    1.248498    3.452677    -4.515608    0.314543    16.780724    -4.543850    0.999446    7.018150    7.968775    -45.972458    22.030331    -45.156281    -0.250132    -13.996701    -106.203407    -6.915092    -14.311413    -0.094649    -2.888748    6.648807    -1.898717    60.547718    11.472629    41.828655    15.366120    14.732008    105.932640    -28.013893    -4.744554    -4.269969    -7.031263    8.928275    -8.854921    0.489068    6.990081    -3.279596    7.568356    -7.139144    16.053560    -6.371887    -7.478382    1.926047    -1.491300    -17.338140    8.350885    -5.754792    6.183384    1.759933    13.552834    -7.715907    2.718665    1.861611    -4.580396    3.194740    
-2.671811    81.744934    16.085468    2.812294    3.354102    88.237587    -5.552418    -0.477835    -4.415869    -0.105393    12.319259    -1.448071    1.182491    3.538370    -4.451644    0.549906    16.461342    -4.550062    0.927279    7.098683    8.119865    -47.011265    21.146683    -44.606606    -0.489718    -13.189433    -105.177643    -6.211471    -13.791305    -0.337852    -2.903306    6.625342    -1.863664    60.613960    11.439621    41.799038    15.331933    14.623908    106.041466    -27.906694    -4.843063    -4.314788    -7.069007    9.147386    -8.765772    0.504794    7.263025    -3.368504    7.524970    -7.480272    16.053833    -6.430313    -7.566893    1.884895    -1.457648    -17.367271    8.462211    -5.696531    6.819370    1.832758    13.339041    -7.634380    2.579563    2.035571    -4.783866    3.031593    
-2.161391    81.643623    16.188299    2.945770    3.573254    88.275223    -5.624022    -0.430187    -4.403286    -0.240290    12.365822    -1.429799    1.281367    3.586693    -4.485635    0.379820    16.167257    -4.521828    0.847497    7.174551    8.196172    -47.360580    20.967596    -44.408703    -0.229157    -13.576937    -103.811615    -6.115322    -13.851996    -0.118300    -2.878287    6.622618    -1.876346    60.638893    11.391712    41.877762    15.232525    14.522209    106.111259    -27.978613    -4.817802    -4.376298    -7.274706    9.546996    -8.654145    0.586808    7.505323    -3.453562    7.485372    -7.775186    16.065014    -6.538232    -7.717382    1.847497    -1.442794    -17.417580    6.588750    -5.984549    7.645816    0.786111    13.198800    -6.907804    5.749316    2.165653    -4.797623    2.580648    
-1.692304    81.597366    16.337425    2.795124    3.554208    88.485046    -5.490799    -0.572755    -4.504022    -0.319015    12.313814    -1.452967    1.277335    3.616513    -4.527672    0.410795    15.968672    -4.573143    0.805117    7.189262    8.250016    -46.994373    21.638649    -44.571674    0.959380    -15.209316    -102.051926    -4.947327    -14.042516    -0.406768    -2.845995    6.462186    -1.764514    60.901051    11.096181    41.610119    15.293078    14.755286    106.209511    -27.948183    -4.684444    -4.442484    -7.131306    9.574909    -8.656538    0.590471    7.880486    -3.610299    7.441826    -8.110021    16.062796    -6.615677    -7.825882    1.818445    -1.191826    -17.552820    6.320859    -6.297081    8.307444    1.485282    13.532316    -6.697017    5.561679    2.246737    -4.973748    2.694094    
-1.191006    81.534027    16.482265    2.801187    3.620152    88.579865    -5.447163    -0.630167    -4.525758    -0.412612    12.338344    -1.449147    1.344792    3.685173    -4.570573    0.332679    15.683928    -4.584100    0.734038    7.231010    8.301327    -47.173378    21.549528    -44.359673    1.508986    -15.751588    -100.390289    -4.230919    -13.994436    -0.126838    -2.806283    6.398561    -1.751378    60.924740    11.123171    41.551117    15.147492    14.546819    106.386391    -27.892874    -4.744789    -4.526119    -7.122118    9.786397    -8.537368    0.650729    8.241161    -3.783021    7.363591    -8.384826    16.046280    -6.742133    -8.000401    1.778030    -1.024225    -17.117279    8.437688    -6.480927    8.208130    -1.006071    13.778582    -5.448081    5.983328    3.377823    -6.841637    2.937020    
-0.689603    81.474426    16.632172    2.805344    3.674461    88.668152    -5.373203    -0.649006    -4.522038    -0.517074    12.309765    -1.436480    1.397344    3.798711    -4.620517    0.307362    15.339089    -4.618096    0.665473    7.221892    8.311718    -47.660225    21.524494    -43.961994    2.001781    -16.144505    -98.752960    -3.174242    -13.893632    0.210863    -2.752549    6.300598    -1.748228    61.036671    11.030401    41.406868    15.095439    14.553744    106.499535    -27.837740    -4.705628    -4.544091    -7.100399    9.974176    -8.424912    0.722534    8.650772    -3.958953    7.242825    -8.725613    16.029531    -6.813050    -8.112209    1.710807    -0.958586    -17.397892    6.208461    -6.796335    8.850425    2.592848    13.790751    -5.154371    4.792722    3.180576    -6.658945    3.258168    
-0.187772    81.434807    16.791779    2.792877    3.679299    88.742767    -5.235682    -0.826701    -4.494461    -0.646883    12.535189    -1.409478    1.497894    3.817630    -4.683842    0.206425    15.021568    -4.639826    0.599567    7.066523    8.239981    -47.825626    21.451242    -43.592564    2.916425    -16.661503    -96.586960    -2.513810    -13.489938    -0.395531    -2.654660    6.142906    -1.743811    61.245415    10.761498    41.323486    15.145677    14.773656    106.443092    -27.858488    -4.546328    -4.465693    -7.043966    10.100843    -8.316147    0.853704    9.066883    -4.241444    6.889675    -8.628044    16.213003    -7.016969    -8.611873    0.934104    -0.832970    -17.474262    6.141595    -6.797668    9.454604    3.418504    13.482757    -4.372402    4.091485    2.712523    -5.646616    2.545225    
0.309040    81.417892    16.953402    2.764569    3.633670    88.773949    -5.075059    -0.725276    -4.495196    -0.719555    12.313416    -1.405153    1.549409    3.772714    -4.700492    0.119453    15.076213    -4.626820    0.474363    7.099699    8.337593    -47.957619    21.481857    -43.236076    3.748832    -16.979820    -94.563347    -1.700356    -13.034450    -1.379924    -2.547314    6.100756    -1.759642    61.240814    10.716855    41.144482    15.208878    14.997166    106.391472    -27.936363    -4.435921    -4.246511    -6.943902    10.233432    -8.200313    0.916773    9.588675    -4.180235    6.987592    -9.548403    16.043037    -6.712899    -8.061792    1.468467    -0.672092    -17.614433    6.199365    -6.710363    10.235591    3.755442    13.189644    -4.304220    3.909727    2.407553    -4.997993    2.146402    
